<?xml version="1.0" encoding="utf-8"?>
<!-- Generator: Adobe Illustrator 19.0.0, SVG Export Plug-In . SVG Version: 6.00 Build 0)  -->
<svg version="1.1" id="Layer_1" xmlns="http://www.w3.org/2000/svg" xmlns:xlink="http://www.w3.org/1999/xlink" x="0px" y="0px"
	 viewBox="302 -105.1 574.5 103.9" style="enable-background:new 302 -105.1 574.5 103.9;" xml:space="preserve">
<style type="text/css">
	.st0{display:none;}
	.st1{display:inline;}
	.st2{display:inline;fill:#4A1B00;}
	.st3{display:none;fill:#4A1B00;}
	.st4{fill:#4A1B00;}
</style>
<title>black swirl divider</title>
<g class="st0">
	<title>Layer 1</title>
	<path id="path2383" class="st1" d="M497.2-30.5c8-7.6,5.5-18.7-1.3-21.9c-12.1-5.9-25.3,6.4-19.2,18.5c6,12.5,21.2,21.3,41.7,23.8
		c44.7,5.3,133-27.2,189-37.1c41.6-7.4,67,3.7,80.7,16c-28.2-13.3-53.9-8.7-80.3-5.4C647-29.1,584.3,2.7,517.8-2.3
		c-31-3.1-52.8-23.7-51-39.8c0.2-1.4,0.5-2.8,1-4.2c4.1-9.6,11.3-13.5,17.6-14.6C502.8-64.1,519.9-43,497.2-30.5z"/>
	<path id="path2390" class="st1" d="M481.9-23.7c-12.3-7.3-25-18.6-36.3-23.6C326.5-99.9,265.5-28.8,326.5-8.4
		c9.4,3.2,28.9,5,42.9-7.5c-17.1,8.7-36.1,5.7-44,1.2c-20.9-12-13.6-29,11-36.8c38.7-9.9,73.6,0.7,104.2,15.3
		c21.8,8.7,27.4,12.8,45,18.2c-10,0.3-4.7-8.5-14.3-12.6L481.9-23.7L481.9-23.7z"/>
	<path id="path2479" class="st1" d="M1031.5-33.8c-8.5,7.6-5.8,18.8,1.4,22.1c12.8,5.9,26.8-6.4,20.4-18.7
		c-6.4-12.6-22.4-21.4-44.3-24C961.7-59.7,868.1-27,808.7-17c-44.1,7.4-71.1-3.7-85.6-16.1c29.9,13.4,57.1,8.8,85.2,5.5
		c64.3-7.6,130.9-39.7,201.4-34.7c32.9,3.1,56,23.9,54.1,40.1c-0.2,1.4-0.5,2.9-1.1,4.2c-4.3,9.6-11.9,13.6-18.7,14.8
		C1025.6,0,1007.4-21.2,1031.5-33.8z"/>
	<path id="path2481" class="st1" d="M1045.1-43.5c12.9,7.2,26.2,18.5,38.1,23.4c125,52.2,189-18.3,124.9-38.6
		c-9.9-3.1-30.4-5-45.1,7.4c18-8.6,37.9-5.7,46.1-1.2c21.9,11.9,14.2,28.8-11.5,36.5c-40.6,9.8-77.3-0.7-109.4-15.2
		c-22.9-8.7-28.8-12.7-47.3-18c10.5-0.3,5,8.4,15,12.5L1045.1-43.5z"/>
</g>
<g class="st0">
	<path class="st2" d="M580.8-72.3C580.8-72.3,580.8-72.3,580.8-72.3C580.8-72.3,580.8-72.3,580.8-72.3
		C580.9-72.3,580.9-72.3,580.8-72.3z"/>
	<path class="st2" d="M670.1-86.9c-3.7-16-12.6-30.1-12.4-47.1c0-5.1,0.6-10,3.2-14.5c1.4-2.6,6-9.1,9-9.7c-2,0.4-4.2,1.4-6,2.4
		c-16.7,8.9-22.2,29.1-16.1,46.4c6,17.1,23.2,36.1,17.5,54.1c1.6-16.6-8.7-34.5-26.7-35.3c-17.4-0.7-34.6,17.3-24.9,32.4
		c0.8,1.5,1.9,2.8,3.2,3.9c0.1,0.1,0.3,0.3,0.4,0.4c0.2,0.2,0.5,0.3,0.7,0.4c1.9,1.2,4.2,1.9,6.6,1.9c3.4,0,7.6-1.8,9.6-4.5
		c3.6-4.7,2.7-12.3-2.6-15.3c-3.9-2.2-10.1-1.7-12.9,2.2c-2.6,3.6-2.9,8.9,0.5,12.1c-1.6-0.7-2.5-1.2-3.6-2.7
		c-4.9-6.4-1-17.3,5.2-21.5c6.7-4.6,12.4-5.3,20.3-3.7c5.6,1.2,9.2,5.4,11.9,10.1c5.8,10.2,6,22.4,0.6,32.9c-2.2,4.3-6,9-10.4,10.9
		c-3.7,1.6-9.8,2.5-13.7,1.5c2.6-0.5,5.2-0.9,7.5-2.3c4.6-2.9,8.1-8.6,9.3-13.9c1.3-6.3-0.2-12.7-2.8-18.5c0.7,4-0.5,8.9-2.1,12.6
		c-5.1,11.1-18.5,16.7-30.1,15.1c-6.5-0.9-12.7-3.9-18.5-6.6c-5.8-2.7-11.1-6.5-15.8-10.7c-4.9-4.3-8.6-10.4-8.7-17
		c-0.1-6.2,3.7-12.7,10.7-11.3c3,0.6,6.4,3.2,7.8,6c1.5,3,1.5,6.7-0.9,9.4c-2,2.3-6.1,2.8-8.4,0.5c-2.9-3-0.1-6.4,3.5-6
		c-4-2.4-8.4,0.9-6.6,5.5c1.4,3.6,6.5,5.2,10.1,4.2c3.4-1,6-5.2,5.8-8.6c-0.3-4-2.7-8.2-5.9-10.6c-6.1-4.7-15-2.3-18.3,4.3
		c-2.1,4.2-2.3,10.3-0.6,15.6c-2.3-1.7-4.6-3.3-6.9-4.9c-7-7.8-10.2-19.1-1.2-27.3c8.3-7.5,23.9,2,32.1,4.9
		c13.7,4.8,31.3,2.6,37.8-12.2c4.3-9.8-2.2-23.4-13.6-22.9c-6.7,0.3-13.2,3.6-15.3,9c-0.6,1.3-1,2.8-1,4.3c0,5.5,4.5,10,10,10
		c6.4,0,11.7-6.7,8.7-12.7c-1.6-3.2-5.6-4.6-9-4.1c-1.6,0.2-3.4,0.8-4.6,1.9c-1.6,1.5-2.9,4-2.7,6.3c-1-2.3,0.2-5,1.6-6.9
		c1.4-1.7,3.4-2.9,5.5-3.7c4-1.6,8.4-1.7,12.2,0.4c5.7,3.1,7.1,10.4,5.5,16.2c-1.9,6.7-8,11.1-14.3,13.3c-7.8,2.7-15.1,0.2-22.3-2.8
		c0.7,0.3,3.4-1.5,4-2c1-0.9,1.6-2.4,2-3.6c0.9-2.7,0.9-6-1-8.3c0.3,12.4-20.4,3.8-27.2,4.5c-3.5,0.3-7.5,1.6-10.4,3.4
		c-9.5,6-12.6,16.4-8,25.9c-17.7-8-35.4-6.6-55.4-0.9c-5.3,1.5-10.5,3.3-15.6,5.3c-11.1,3.4-24.3,5.7-27.4-5.8
		c-1.2-4.3,2-9.6,5.9-11.6c1.9-1,5-1.2,7-0.5c7.6,2.5,0.3,12.6-4.5,7c-0.7-0.8-0.8-3.3,0.5-3.7c-3,1-2.6,4-0.7,6
		c3.5,3.6,10.1,0.6,10.5-4c0.8-8.6-9.9-9.1-15.2-5.6c-8,5.2-10.3,14.8-1.7,20.6c3.4,2.3,7.6,2.9,12,2.5c-6.8,2.3-16.3,6.8-23.7,5.5
		c-5.8-1.1-7.8-6.6-7.8-11.8c0-2.7,0.8-5.3,2.4-7.5c1-1.3,4.9-5,6.8-4.5c-7.3-2-19.7,2.6-21.9,10.4c-1.8-4.4-5.9-7-10.5-5
		c6.5,2.2,5.4,10.1,5.2,15.6c-0.2,4.2,1,9.7,4.9,12.2c4.6,3,8.8,3.1,14.1,2.1c1.1-0.2,2.1-0.5,3.2-0.8c-9.8,4.5-18.3,12.2-28.7,15.7
		c-9.4,3.1-19.9,5.7-28.7,1c-10.1-5.4-10.8-15.9-6.1-24.7c1.3-2.3,4.6-8.4,1.7-10.9c-7.7-6.5-14.2,6.1-15,12.2
		c-0.9,6.4,0.6,13.4,4,18.9c4.8,8,14.8,10.2,24.3,10c-0.2,0.1-0.4,0.1-0.6,0.1c-14.5,2.1-25.8-4.1-30.3-20.2
		c-3.4-12.2-0.3-24.9,9.1-33.4c8.4-7.6,24-7.6,32.8-0.3c2.9,2.4,4.9,6.2,6,9.8c1,3.4,1.2,6.7-1,9.8c1-1.5,0-4.9-0.8-6.3
		c-1.3-2.1-4-4.3-6.5-4.8c-4.6-0.8-10,1.5-12.4,5.5c-3.3,5.4-1.5,12,3.5,15.6c7.9,5.8,18.8,0.8,20.7-8.6c0.8-4.3,0.3-8.9-1.1-12.9
		c-5.4-14.8-22.4-20.2-36.5-15.3c-2.3,0.8-5.8,2.4-7.6,4c-0.3-4.9-5.6-8.1-10-8.4c-4.4-0.3-12.3,3.5-8.9,9.2
		c-0.9-1.5,2.2-3.6,3.4-3.6c2,0.1,2.9,1.9,3.3,3.6c0.9,3.3,0.4,7.2-0.2,10.5c-0.5,2.8-1.2,5.5-1.5,8.3c-0.8,6.8-0.9,14.7,1,21.4
		c0.7,2.5,1.6,4.7,2.6,6.7c-3.6-1.6-7.5-2.4-12-1.2c-3.4,0.9-6.1,4-8.2,6.5c-4.5,5.2-9.7,12.4-16.8,14c-5,1.1-11.7-0.5-11.2-6.8
		C301.2-14,306-10.4,313.5-10c9,0.5,17.4-3.8,25.1-8c10.9-6,21-3.1,32.4-3c16.3,2,36.9-7.1,50-13.9c14.9-7.7,28.6-17.5,43.7-24.9
		c2.8-1.4,5.5-2.4,8.3-3.7c-9.5,4.1-13.4,22.6-25.9,21c-1.2-0.2-2.5-0.8-2.7-2c0.3,4.4,5,6.2,8.9,6.2c6,0,9.4-3.3,12.1-8.4
		c-4.4,8,2.4,17.3,10.8,16.8c9.9-0.7,16.8-8.5,19.5-17.3c-0.5,1.6-1.4,3-2.6,4.1c-6.6,6-15.6-0.9-13.4-8.9
		c2-7.2,10.3-12.2,16.4-15.5c10.6-5.7,21.5-7.6,33.4-5.7c9.5,1.5,18.2,6.9,26,12.2c-8.6-3.1-17.4-5.4-26.5-6.2
		c-5.7-0.5-12-0.1-17.3,2.2c-2.3,1-5.1,2.4-5.6,5c-1.2,5.9,4.4,7,9.1,6.5c6.9-0.8,13.4-3.5,20.3-4.5c8.9-1.2,17.9,0,26.4,2.8
		c-2.8-0.3-5.6-0.5-8.5-0.4c-22.2,0.3-41,7-56.6,22.8c-10.1,10.2-20.4,18-34.1,23.1c-10,3.7-28.4,7.3-35-4.3
		c-3.1-5.5-0.2-12.7,3.6-17c6.1-6.7,15.5,2.4,11.7,9.3c-0.9,1.7-2.9,2.7-4.8,2.9c-2.6,0.3-3.9-1.1-3.6-3.6c-1.7,2.4,1.3,5.7,3.5,6.5
		c2.7,1,5.7,0.3,7.9-1.4c9.2-7,1.1-19.6-8.8-19.1c-14.4,0.6-26.4,20.7-12,30.1c9.2,6,23.4,3,33.2,0.6c14.3-3.6,27.9-11.1,38.7-21
		c6.5-6,12.1-12.8,19.5-17.8c5-3.4,11.2-5.6,17.9-6.8c-8.7,3.6-16.8,7.6-23.2,15.3c-4.1,4.9-9,9.8-11.3,15.9c-1,2.6-2,6.1-0.7,8.8
		c2.8,6.2,8.4-0.4,10.4-3.4c3.2-4.7,4.9-10.2,7.2-15.4c2.9-6.3,6.5-11.7,12.6-14.9c-3.4,3.1-5.9,6.9-7.3,11.5
		c-6.7,22.9,19.5,27.6,35.2,20.5c8.3-3.7,14.5-10.3,11.2-19.8c-3-8.8-14-12.6-22.3-9.9c-3.9,1.3-7.7,3.7-9.2,7.7
		c-2.5,6.6,1.9,12.3,8.6,12.9c2.5,0.2,5.6-0.2,7.1-2.4c1.4-2.2,1.8-6.6-1.1-7.9c1.3,1.9,1.3,4-0.5,5.6c-3.1,2.8-8.2,0.8-9.4-3
		c-1-3.5,1.2-7.5,4.5-9c3.3-1.6,7.6,0.2,10.3,2.2c4.9,3.7,6.5,10.2,4.3,15.8c-2.8,7.1-12.7,8.7-19.3,7.7
		c-11.5-1.7-14.1-13.8-11.4-23.4c3.6-12.4,17.4-15.5,28.8-15.1c3.8,0.2,8.1,1,11.5,2.9c2.9,1.6,6,3.1,8.7,4.9
		c14.7,10.1,32.5,21.3,51.1,20.3c7.6-0.4,14.6-2.3,22.1-3.6c4.5-0.8,11-0.1,13.8,4.1c1.5,2.2,1.2,5,0.6,7.4c3.3-3.5,1.9-10.9-1.2-14
		c-3.4-3.4-10-3.9-14.2-1.8c1.7-1.9,4-3.1,5.9-4.9c2-1.9,3.9-3.8,5.5-6c3.1-4.1,5.6-8.7,6.9-13.7c1.5-5.8,2-12.3,1.7-18.3
		C671.3-78.6,671-82.9,670.1-86.9z"/>
	<path class="st2" d="M762.7-72.3C762.7-72.3,762.7-72.3,762.7-72.3C762.7-72.3,762.7-72.3,762.7-72.3
		C762.6-72.3,762.6-72.3,762.7-72.3z"/>
	<path class="st2" d="M1040.7-22.1c0.5,6.3-6.1,7.9-11.2,6.8c-7.1-1.5-12.3-8.8-16.8-14c-2.2-2.5-4.9-5.5-8.2-6.5
		c-4.5-1.2-8.4-0.4-12,1.2c1-2,1.9-4.2,2.6-6.7c1.9-6.7,1.8-14.6,1-21.4c-0.3-2.8-1-5.5-1.5-8.3c-0.6-3.3-1.1-7.2-0.2-10.5
		c0.4-1.7,1.3-3.6,3.3-3.6c1.2,0,4.3,2.1,3.4,3.6c3.4-5.7-4.5-9.5-8.9-9.2c-4.4,0.3-9.7,3.5-10,8.4c-1.8-1.7-5.3-3.2-7.6-4
		c-14.1-4.9-31.1,0.4-36.5,15.3c-1.5,4.1-2,8.7-1.1,12.9c1.9,9.4,12.8,14.4,20.7,8.6c4.9-3.6,6.7-10.2,3.5-15.6
		c-2.5-4.1-7.8-6.3-12.4-5.5c-2.5,0.4-5.2,2.6-6.5,4.8c-0.9,1.4-1.9,4.8-0.8,6.3c-2.2-3.1-2-6.4-1-9.8c1-3.6,3.1-7.3,6-9.8
		c8.7-7.4,24.3-7.4,32.8,0.3c9.4,8.5,12.4,21.2,9.1,33.4c-4.5,16.1-15.8,22.3-30.3,20.2c-0.2,0-0.4-0.1-0.6-0.1
		c9.4,0.2,19.5-2.1,24.3-10c3.3-5.5,4.9-12.5,4-18.9c-0.9-6.1-7.3-18.7-15-12.2c-2.9,2.5,0.4,8.5,1.7,10.9
		c4.8,8.8,4.1,19.3-6.1,24.7c-8.9,4.7-19.3,2.1-28.7-1c-10.4-3.5-18.9-11.1-28.7-15.7c1,0.3,2.1,0.6,3.2,0.8c5.3,1,9.6,0.9,14.1-2.1
		c3.9-2.5,5-8,4.9-12.2c-0.2-5.5-1.3-13.5,5.2-15.6c-4.7-2.1-8.8,0.6-10.5,5c-2.2-7.8-14.5-12.4-21.9-10.4c1.9-0.5,5.8,3.1,6.8,4.5
		c1.6,2.2,2.4,4.8,2.4,7.5c0,5.3-2,10.8-7.8,11.8c-7.4,1.3-16.8-3.2-23.7-5.5c4.5,0.4,8.6-0.2,12-2.5c8.6-5.8,6.2-15.5-1.7-20.6
		c-5.3-3.5-16-3-15.2,5.6c0.4,4.6,7.1,7.6,10.5,4c1.9-2,2.3-5-0.7-6c1.3,0.4,1.2,2.9,0.5,3.7c-4.9,5.5-12.1-4.5-4.5-7
		c2-0.7,5.1-0.5,7,0.5c3.8,2,7,7.3,5.9,11.6c-3.1,11.5-16.2,9.2-27.4,5.8c-5.1-2-10.3-3.8-15.6-5.3c-20-5.6-37.7-7-55.4,0.9
		c4.5-9.5,1.5-19.9-8-25.9c-2.9-1.9-7-3.1-10.4-3.4c-6.9-0.6-27.5,7.9-27.2-4.5c-1.9,2.3-1.9,5.6-1,8.3c0.4,1.3,1,2.7,2,3.6
		c0.6,0.5,3.3,2.3,4,2c-7.2,3.1-14.5,5.6-22.3,2.8c-6.3-2.2-12.4-6.6-14.3-13.3c-1.6-5.8-0.2-13.1,5.5-16.2
		c3.8-2.1,8.2-1.9,12.2-0.4c2,0.8,4.1,1.9,5.5,3.7c1.4,1.8,2.6,4.6,1.6,6.9c0.2-2.3-1.1-4.8-2.7-6.3c-1.2-1.1-3-1.7-4.6-1.9
		c-3.3-0.5-7.4,0.9-9,4.1c-3,6.1,2.3,12.7,8.7,12.7c5.5,0,9.9-4.5,9.9-10c0-1.6-0.4-3-1-4.3c-2.2-5.4-8.7-8.7-15.3-9
		c-11.4-0.5-17.9,13.2-13.6,22.9c6.5,14.7,24.1,16.9,37.8,12.2c8.3-2.9,23.8-12.4,32.1-4.9c9,8.2,5.9,19.5-1.2,27.3
		c-2.3,1.6-4.6,3.2-6.9,4.9c1.6-5.3,1.5-11.4-0.6-15.6c-3.3-6.6-12.2-8.9-18.3-4.3c-3.2,2.4-5.6,6.6-5.9,10.6
		c-0.2,3.3,2.4,7.6,5.8,8.6c3.6,1,8.7-0.6,10.1-4.2c1.8-4.6-2.6-7.9-6.6-5.5c3.6-0.5,6.4,2.9,3.5,6c-2.3,2.3-6.4,1.8-8.4-0.5
		c-2.3-2.7-2.3-6.3-0.9-9.4c1.4-2.8,4.8-5.4,7.8-6c7.1-1.5,10.8,5.1,10.7,11.3c-0.1,6.6-3.8,12.7-8.7,17c-4.8,4.2-10,8-15.8,10.7
		c-5.9,2.7-12.1,5.7-18.5,6.6c-11.6,1.6-25-4-30.1-15.1c-1.7-3.6-2.8-8.6-2.1-12.6c-2.6,5.8-4.2,12.2-2.8,18.5
		c1.1,5.3,4.7,10.9,9.3,13.9c2.3,1.5,4.8,1.8,7.5,2.3c-3.9,1-10,0.1-13.7-1.5c-4.4-1.9-8.2-6.7-10.4-10.9
		c-5.4-10.5-5.2-22.7,0.6-32.9c2.7-4.7,6.3-9,11.9-10.1c8-1.6,13.6-0.9,20.3,3.7c6.2,4.2,10.1,15.1,5.2,21.5c-1.1,1.5-2,2-3.6,2.7
		c3.4-3.2,3.1-8.6,0.5-12.1c-2.8-3.9-8.9-4.4-12.9-2.2c-5.3,3-6.2,10.5-2.6,15.3c2,2.7,6.2,4.5,9.6,4.5c2.4,0,4.7-0.7,6.6-1.9
		c0.3-0.1,0.6-0.2,0.7-0.4c0.2-0.1,0.3-0.3,0.4-0.4c1.3-1.1,2.4-2.4,3.2-3.9c9.6-15.1-7.5-33.1-24.9-32.4
		c-18,0.8-28.2,18.7-26.7,35.3c-5.6-18,11.5-37,17.5-54.1c6.1-17.4,0.6-37.5-16.1-46.4c-1.8-1-4-2-6-2.4c3.1,0.7,7.6,7.2,9,9.7
		c2.5,4.5,3.1,9.4,3.2,14.5c0.1,17-8.7,31.2-12.4,47.1c-0.9,4-1.2,8.3-1.4,12.4c-0.3,6,0.1,12.5,1.7,18.3c1.3,5,3.8,9.7,6.9,13.7
		c1.7,2.2,3.6,4.1,5.6,6c1.8,1.8,4.2,3,5.9,4.9c-4.2-2.1-10.8-1.6-14.2,1.8c-3.1,3.1-4.6,10.6-1.2,14c-0.6-2.5-0.9-5.2,0.6-7.4
		c2.8-4.2,9.4-4.9,13.8-4.1c7.5,1.3,14.5,3.2,22.1,3.6c18.6,1,36.3-10.2,51-20.3c2.7-1.8,5.8-3.3,8.7-4.9c3.4-1.9,7.6-2.8,11.5-2.9
		c11.4-0.4,25.1,2.6,28.8,15.1c2.8,9.6,0.1,21.6-11.4,23.4c-6.6,1-16.5-0.6-19.3-7.7c-2.2-5.6-0.6-12,4.3-15.8
		c2.7-2.1,7-3.8,10.3-2.2c3.2,1.5,5.5,5.5,4.5,9c-1.1,3.8-6.2,5.9-9.4,3c-1.8-1.6-1.8-3.7-0.5-5.6c-2.8,1.3-2.5,5.7-1.1,7.9
		c1.5,2.2,4.6,2.6,7.1,2.4c6.7-0.5,11.1-6.2,8.6-12.9c-1.5-4-5.3-6.4-9.2-7.7c-8.3-2.7-19.3,1.1-22.3,9.9
		c-3.3,9.6,2.9,16.1,11.2,19.8c15.8,7.1,42,2.4,35.2-20.5c-1.3-4.5-3.9-8.4-7.2-11.5c6.1,3.2,9.7,8.6,12.6,14.9
		c2.3,5.1,4.1,10.6,7.2,15.4c2,3,7.6,9.5,10.4,3.4c1.2-2.7,0.3-6.2-0.7-8.8c-2.3-6.1-7.2-11-11.3-15.9c-6.4-7.6-14.5-11.7-23.2-15.3
		c6.6,1.2,12.9,3.4,17.9,6.8c7.4,5,13,11.8,19.5,17.8c10.8,10,24.4,17.4,38.7,21c9.8,2.5,24,5.4,33.2-0.6c14.3-9.3,2.4-29.4-12-30.1
		c-9.9-0.4-18,12.1-8.8,19.1c2.2,1.7,5.2,2.4,7.9,1.4c2.2-0.8,5.3-4.1,3.5-6.5c0.3,2.6-1,3.9-3.6,3.6c-1.9-0.2-3.8-1.2-4.8-2.9
		c-3.8-7,5.7-16,11.7-9.3c3.9,4.3,6.8,11.4,3.6,17c-6.6,11.6-24.9,8.1-35,4.3c-13.7-5.1-24-12.8-34.1-23.1
		c-15.6-15.8-34.4-22.5-56.6-22.8c-2.9,0-5.7,0.1-8.5,0.4c8.5-2.8,17.5-4,26.4-2.8c6.9,0.9,13.4,3.7,20.3,4.5
		c4.7,0.5,10.3-0.6,9.1-6.5c-0.5-2.7-3.3-4.1-5.6-5c-5.3-2.3-11.6-2.7-17.3-2.2c-9.1,0.8-17.9,3.1-26.5,6.2
		c7.8-5.4,16.5-10.8,26-12.2c11.9-1.8,22.8,0.1,33.4,5.7c6.1,3.3,14.3,8.2,16.4,15.5c2.3,8-6.8,14.9-13.4,8.9
		c-1.2-1.1-2.1-2.5-2.6-4.1c2.8,8.8,9.7,16.7,19.6,17.3c8.4,0.6,15.2-8.8,10.8-16.8c2.8,5,6.2,8.3,12.1,8.4c3.9,0,8.7-1.8,8.9-6.2
		c-0.2,1.2-1.5,1.9-2.7,2c-12.5,1.6-16.5-16.9-25.9-21c2.8,1.2,5.5,2.3,8.3,3.7c15.1,7.4,28.8,17.1,43.7,24.9
		c13.1,6.8,33.7,15.8,50,13.9c11.5-0.2,21.5-3,32.4,3c7.7,4.2,16.1,8.6,25.1,8C1037.5-10.4,1042.3-14,1040.7-22.1z"/>
</g>
<path class="st3" d="M1089.5-75.8c-6.1-6.5-13.7-11.5-22.4-13.8c-8.7-2.4-17.5,0.2-25.9-1.7c4.5,10.9,9,20,19.8,25.8
	c11.1,6,31.9,8,28.9,25.5c-1.1,6.7-4.6,13.2-10.5,16.9c-2.7,1.7-10.6,7-13,3.2c-1.8-2.9,0.1-8.3,0.6-11.4c1.2-7.4,1.9-15.2-2.8-21.6
	c-7.2-9.9-24.3-12.2-33.9-4.5c-4.6,3.7-6.1,8.8-6.3,14.6c-0.2,8.6,7.9,16,16.5,13.6c10.5-2.9,6.3-22.5-4.6-14.4
	c4.6-2.1,9.6,1.3,8.1,6.7c-1.2,4.5-6.5,5.2-10,2.7c-3.5-2.6-3.1-9.3-1.2-12.8c2.6-4.8,8.4-6.1,13.5-5.3c6.6,1.1,10,7,11,13.1
	c1,6.7-1.8,12.4-7.7,15.8c-12.7,7.4-27.7,4.4-41.4-0.4c-3.5-1.4-6.9-2.9-10.4-4.3c6-9.2,5.4-22.1-3.3-31
	c-21.4-21.9-55.5-16.3-83-6.2c-10-4.6-20.1-9.2-30.2-13.7c-21-9.3-42.6-20.1-65.3-24.3c-13.8-2.6-31.4-3.8-43.2,5.6
	c-3.5,2.8-6.3,6.3-8.5,10.3c-4.4-1.4-8.9-2.7-13.4-4c-10.2-2.8-20.6-6.4-31.2-6.9c-6-0.3-12.1,0.7-17.6,2.8
	c-5.6-2.1-11.6-3.1-17.6-2.8c-10.6,0.5-21,4.1-31.2,6.9c-4.5,1.2-9,2.6-13.4,4c-2.2-3.9-5-7.5-8.5-10.3c-11.7-9.4-29.3-8.2-43.1-5.6
	c-22.7,4.2-44.3,15-65.3,24.3c-10.1,4.5-20.1,9.1-30.2,13.7c-27.4-10.2-61.5-15.8-83,6.2c-8.7,8.9-9.3,21.7-3.3,31
	c-3.5,1.4-6.9,2.9-10.4,4.3c-13.6,4.8-28.6,7.9-41.4,0.4c-5.9-3.4-8.7-9.1-7.7-15.8c1-6.2,4.4-12,11-13.1c5-0.9,10.9,0.4,13.4,5.3
	c1.9,3.5,2.3,10.3-1.2,12.8c-3.4,2.5-8.7,1.8-10-2.7c-1.5-5.4,3.5-8.8,8.1-6.7c-10.9-8.1-15.1,11.5-4.6,14.4
	c8.5,2.4,16.6-5,16.5-13.6c-0.1-5.7-1.7-10.9-6.3-14.6c-9.6-7.7-26.8-5.4-33.9,4.5c-4.7,6.4-3.9,14.2-2.7,21.6
	c0.5,3.1,2.4,8.5,0.6,11.4c-2.4,3.8-10.3-1.5-13-3.2c-5.9-3.8-9.4-10.2-10.5-16.9c-2.9-17.5,17.8-19.5,28.9-25.5
	c10.8-5.8,15.3-14.9,19.8-25.8c-8.5,1.9-17.2-0.6-25.9,1.7c-8.6,2.4-16.3,7.3-22.4,13.8c-14.5,15.6-17.9,36.7-3.9,53.6
	c13.5,16.4,35.3,16.9,54.3,12.7c12.3-2.7,24-7.9,35.5-12.9c2.5-1.1,5.1-2.2,7.6-3.2l0.1-0.1c2.6,3,6,5.5,10.1,7
	c2.5,0.9,5,1.5,7.7,1.9C432,0.9,455,0.6,469.7-3.7c10.1-3,19.5-8.4,28.7-13.6c6.5-3.7,13-7.1,19.6-10.6c0.7,0.3,1.3,0.7,2,1
	c20.8,10.9,48.1,26.4,72.3,17.5c7.6-2.8,14.1-7.9,18.8-14.4c15.4-2.3,28.9-9.8,33.2-26.8c2.7-10.7,1.9-23.5-2.9-34.1
	c3.1-1,6.2-1.9,9.4-2.8c14.8-4.2,31-9.9,45.1-5.2c-10,5.8-17.1,15.7-17,28.7c0.2,16.5,9.8,25.8,23.3,29.8v0l0,0l0,0v0
	c13.4-4,23.1-13.2,23.3-29.8c0.1-13.1-7-22.9-17-28.7c14.2-4.7,30.3,0.9,45.1,5.2c3.1,0.9,6.3,1.8,9.4,2.8
	c-4.8,10.5-5.6,23.4-2.9,34.1c4.3,17,17.8,24.5,33.2,26.8c4.7,6.5,11.2,11.6,18.8,14.4c24.2,8.9,51.5-6.6,72.3-17.5
	c0.7-0.3,1.3-0.7,2-1c6.6,3.4,13.1,6.9,19.6,10.6c9.1,5.2,18.5,10.6,28.7,13.6c14.7,4.3,37.7,4.5,43.5-13c2.6-0.4,5.2-1,7.7-1.9
	c4.2-1.6,7.5-4,10.1-7l0.1,0.1c2.5,1.1,5.1,2.1,7.6,3.2c11.5,5,23.2,10.2,35.5,12.9c19,4.2,40.8,3.7,54.3-12.7
	C1107.4-39.1,1104-60.2,1089.5-75.8z M525.8-76.5c22.2-9.9,45.4-21.7,69.8-24.6c16.3-1.9,29.5,3.8,36.6,16.1
	c-6.6,2.2-13.1,4.6-19.6,7.2c-4.4,1.7-8.7,3.5-13,5.4c-3.6-2.3-7.4-4.1-11.2-5.1C571.9-82,553-73,538.5-66.2
	c-7.5,3.5-14.9,7.3-22.2,11.2c-2.7-1.3-5.5-2.6-8.3-3.9c-3.4-1.6-7-3.1-10.7-4.6C506.8-67.9,516.3-72.2,525.8-76.5z M593-69.5
	c-17.9,8-35.4,17-52.8,26.1c-6.6-3.1-13.1-6.3-19.7-9.5c5.8-3.1,11.6-6.2,17.4-9.1c10.7-5.4,21.9-10.4,33.8-12.3
	C579.5-75.7,586.8-73.6,593-69.5z M510.6-52c-4.4,2.3-8.7,4.7-13.1,7.1c-7.3-3.4-14.9-6.3-22.7-8.4c5.3-2.4,10.6-4.8,15.9-7.2
	C497.5-58,504.1-55,510.6-52z M425.1-21.9c-4-1.1-7.5-3.1-10.2-6.4c3.5-1.4,7-2.9,10.5-4.3C424.7-29.3,424.5-25.8,425.1-21.9z
	 M426.7-36.5c-4.5,1.9-9,3.7-13.5,5.6c-1.6-2.8-2.7-6.2-3.2-10.5c-1.5-12.2,9.1-22.2,19.4-26.3c11.1-4.5,24.4-2.6,35.8-0.4
	c7.2,1.4,14.2,3.5,21,5.9c-5.6,2.6-11.2,5.1-16.8,7.6C452.6-57.5,432.9-51.3,426.7-36.5z M462.5-51.7c-7.6,3.4-15.3,6.6-23,9.8
	c-1.2,0.5-2.4,1-3.6,1.5c1.8-3,4.2-5.8,7.5-8.2C448.9-52.5,455.7-52.8,462.5-51.7z M434-36c2.8-1.1,5.6-2.2,8.3-3.4
	c8.7-3.5,17.3-7.2,25.8-11c4.2,1.1,8.2,2.7,11.7,4c3.9,1.5,7.6,3.2,11.4,4.9c-3.7,2-7.5,4-11.2,5.9c-10.9,5.7-30.5,14.6-46.3,14.7
	C432.3-25.7,432.3-31,434-36z M501.3-23.1c-12.8,7-25.2,15.4-39.8,18.1c-12.4,2.3-21.6-3.3-26-11.5c15.2-1.1,31.3-8.7,43.4-14.6
	c5.6-2.7,11.1-5.6,16.5-8.4c6.3,3.1,12.4,6.4,18.6,9.6C509.8-27.7,505.5-25.4,501.3-23.1z M501.8-42.9c4.4-2.3,8.8-4.7,13.1-7.1
	c6.6,3.1,13.1,6.3,19.8,9.4c-4.8,2.5-9.5,4.9-14.3,7.4C514.3-36.5,508.1-39.8,501.8-42.9z M590.7-12.2c-12.1,5-27.5-0.9-38.8-5.5
	c-9.4-3.8-18.5-8.6-27.6-13.5c3.7-1.9,7.4-3.8,11.1-5.8c1.2-0.6,2.3-1.2,3.5-1.8c12.8,5.8,25.8,10.9,39.7,13.7
	c7.8,1.6,16.7,2.5,25.3,2.1C600.7-18.3,596.2-14.5,590.7-12.2z M605.9-26.2c-12.5,0.6-25.7-2.7-37-6c-8.5-2.5-16.6-5.7-24.6-9.3
	c17.1-8.9,34.4-17.7,52-25.6c3.4,2.8,6.4,6.1,8.8,9.8C611.3-47.6,611-35.7,605.9-26.2z M618.1-28.3c-1.6,0.5-3.2,0.9-4.8,1.2
	c1.5-2.6,2.7-5.4,3.6-8.4c3.8-13.2-3.4-26.3-13.9-34.5c10.1-4.4,20.4-8.4,30.8-12c1.5,3.1,2.6,6.6,3.3,10.5
	C640.2-54.6,636.5-34.1,618.1-28.3z M708.4-84.7c6.1,6,9,14.6,9.5,22.9c0.8,11.7-5.8,20.6-15.8,24.3c-9.9-3.7-16.6-12.6-15.8-24.3
	c0.6-8.4,3.4-16.9,9.5-22.9c2-2,4.1-3.6,6.3-4.9C704.3-88.3,706.4-86.7,708.4-84.7z M913.5-60.6c5.3,2.4,10.6,4.8,15.9,7.2
	c-7.8,2.1-15.3,5.1-22.7,8.4c-4.4-2.4-8.7-4.7-13.1-7.1C900.2-55,906.8-58,913.5-60.6z M808.7-101c24.5,2.8,47.6,14.6,69.8,24.6
	c9.5,4.3,19,8.6,28.4,12.9c-3.8,1.5-7.4,3-10.7,4.6c-2.8,1.3-5.5,2.6-8.3,3.9c-7.3-3.9-14.7-7.7-22.2-11.2
	C851.3-73,832.4-82,816-77.5c-3.8,1-7.7,2.8-11.2,5.1c-4.3-1.9-8.6-3.7-13-5.4c-6.5-2.5-13-4.9-19.6-7.2
	C779.2-97.2,792.4-102.9,808.7-101z M883.7-53c-6.5,3.2-13.1,6.5-19.7,9.5c-17.4-9.1-34.9-18.1-52.8-26.1c6.2-4,13.5-6.1,21.3-4.9
	c11.9,1.9,23.1,6.9,33.8,12.3C872.2-59.1,878-56.1,883.7-53z M787.5-35.5c0.8,2.9,2.1,5.8,3.6,8.4c-1.6-0.3-3.3-0.7-4.8-1.2
	c-18.3-5.8-22-26.3-18.9-43.2c0.7-3.9,1.8-7.4,3.3-10.5c10.4,3.6,20.7,7.6,30.8,12C790.9-61.8,783.7-48.7,787.5-35.5z M799.2-57.3
	c2.4-3.7,5.4-7.1,8.8-9.8c17.6,7.9,34.9,16.6,52,25.6c-8,3.6-16.1,6.9-24.6,9.3c-11.3,3.3-24.5,6.6-37,6
	C793.3-35.7,793-47.6,799.2-57.3z M852.4-17.6C841-13,825.7-7.1,813.6-12.2c-5.5-2.3-10-6.1-13.2-10.7c8.7,0.4,17.5-0.5,25.4-2.1
	c13.9-2.8,26.9-7.9,39.7-13.7c1.2,0.6,2.3,1.2,3.5,1.8c3.7,1.9,7.4,3.8,11.1,5.8C870.9-26.2,861.8-21.5,852.4-17.6z M883.9-33.2
	c-4.8-2.5-9.5-4.9-14.3-7.4c6.6-3.1,13.2-6.3,19.8-9.4c4.4,2.4,8.8,4.7,13.1,7.1C896.2-39.8,890-36.5,883.9-33.2z M942.8-5
	c-14.6-2.7-27-11.2-39.8-18.1c-4.2-2.3-8.5-4.5-12.8-6.8c6.2-3.3,12.3-6.6,18.6-9.6c5.5,2.9,11,5.7,16.5,8.4
	c12.1,5.9,28.2,13.5,43.4,14.6C964.3-8.3,955.1-2.7,942.8-5z M970.6-20.8c-15.8-0.1-35.4-9.1-46.3-14.7c-3.8-1.9-7.5-3.9-11.2-5.9
	c3.8-1.7,7.5-3.4,11.4-4.9c3.5-1.3,7.5-2.8,11.7-4c8.6,3.8,17.2,7.5,25.8,11c2.8,1.1,5.6,2.2,8.3,3.4C972-31,972-25.7,970.6-20.8z
	 M941.8-51.7c6.8-1.2,13.6-0.9,19,3.1c3.3,2.4,5.7,5.2,7.5,8.2c-1.2-0.5-2.4-1-3.6-1.5C957-45,949.4-48.3,941.8-51.7z M979.2-21.9
	c0.6-3.9,0.4-7.5-0.4-10.7c3.5,1.4,7,2.8,10.5,4.3C986.8-25,983.3-23,979.2-21.9z M994.4-41.4c-0.5,4.2-1.7,7.7-3.2,10.5
	c-4.5-1.9-9-3.7-13.5-5.6c-6.2-14.8-25.9-20.9-42.6-18.1c-5.6-2.5-11.2-5-16.8-7.6c6.8-2.4,13.8-4.5,21-5.9
	c11.4-2.2,24.7-4.1,35.8,0.4C985.3-63.6,995.9-53.6,994.4-41.4z"/>
<g>
	<polygon class="st4" points="302,-52.9 486.2,-42.9 492.6,-53 486.4,-63 	"/>
	<polygon class="st4" points="692.1,-63 685.9,-53 692.3,-42.9 876.5,-52.9 	"/>
	<path class="st4" d="M684.4-63.8c-0.8-7.7-11.4-10.2-17.6-8.1c-2.2,0.8-3.6,2.8-3.9,5.1c-0.3,2.6,0.7,4.1,2.1,6.1
		c-1.3-1.8-1.6-5,0-6.6c1.6-1.5,4.6-1.9,6.5-1.1c2.6,1,3.6,3.4,2.9,6c-0.8,1.9-2.1,3.3-4,4.2c-5.9,2.2-11.9-1.3-16.1-5
		c-3.5-3.2-6.1-6.8-8.9-10.6c-4.9-6.8-10-13.3-17.2-17.7c-6.8-4.1-16.6-3.6-22.7,0.8c-1.2,0.9-5.7-1-6.9-1.6
		c-1.9-0.9-3.5-2.4-4.7-4.1c-2-2.8-3.6-5.6-4.8-8.6v-0.1c0,0,0,0,0,0.1c0,0,0,0,0-0.1v0.1c-1.3,3-2.8,5.8-4.8,8.6
		c-1.2,1.7-2.8,3.1-4.7,4.1c-1.2,0.6-5.7,2.5-6.9,1.6c-6.1-4.4-15.9-4.9-22.7-0.8c-7.3,4.4-12.3,10.9-17.2,17.7
		c-2.7,3.8-5.4,7.4-8.9,10.6c-4.1,3.8-10.1,7.2-16.1,5c-1.9-0.9-3.3-2.2-4-4.2c-0.7-2.6,0.3-4.9,2.9-6c2-0.8,5-0.4,6.5,1.1
		c1.7,1.6,1.4,4.8,0,6.6c1.4-2,2.4-3.5,2.1-6.1c-0.3-2.3-1.6-4.3-3.9-5.1c-6.2-2.1-16.8,0.4-17.6,8.1c-0.4,3.6,1.8,7.7,5.2,9.2
		c1.8,0.8,3.7,1.3,5.6,1.5c-1.9,0.2-3.8,0.7-5.6,1.5c-3.4,1.4-5.5,5.6-5.2,9.2c0.8,7.7,11.4,10.2,17.6,8.1c2.2-0.8,3.6-2.8,3.9-5.1
		c0.3-2.6-0.7-4.1-2.1-6.1c1.3,1.8,1.6,5,0,6.6c-1.6,1.5-4.6,1.9-6.5,1.1c-2.6-1-3.6-3.4-2.9-6c0.8-1.9,2.1-3.3,4-4.2
		c5.9-2.2,11.9,1.3,16.1,5c3.5,3.2,6.1,6.8,8.9,10.6c4.9,6.8,10,13.3,17.2,17.7c6.8,4.1,16.6,3.6,22.7-0.8c1.2-0.9,5.7,1,6.9,1.6
		c1.9,0.9,3.4,2.4,4.7,4.1c2,2.8,3.5,5.6,4.8,8.6v0.2c0,0,0-0.1,0-0.1c0,0,0,0.1,0,0.1v-0.2c1.3-3,2.8-5.8,4.8-8.6
		c1.2-1.7,2.8-3.1,4.7-4.1c1.2-0.6,5.7-2.5,6.9-1.6c6.1,4.4,15.9,4.9,22.7,0.8c7.3-4.4,12.3-10.9,17.2-17.7
		c2.7-3.8,5.4-7.4,8.9-10.6c4.1-3.8,10.1-7.2,16.1-5c1.9,0.9,3.3,2.2,4,4.2c0.7,2.6-0.3,4.9-2.9,6c-2,0.8-5,0.4-6.5-1.1
		c-1.7-1.6-1.4-4.8,0-6.6c-1.4,2-2.4,3.5-2.1,6.1c0.3,2.3,1.6,4.3,3.9,5.1c6.2,2.1,16.8-0.4,17.6-8.1c0.4-3.6-1.8-7.7-5.2-9.2
		c-1.8-0.8-3.7-1.3-5.6-1.5c1.9-0.2,3.8-0.7,5.6-1.5C682.6-56.1,684.8-60.2,684.4-63.8z M611-77.6c0.5-2.3,1.5-4.8,3.2-6.6
		c2,2.4,3.6,5.4,3.2,8.2C616.6-70.3,610-72.1,611-77.6z M589.2-96.8c1.8,1.3,4.5,3.5,3.9,5.6c-0.5,1.5-2.2,2-3.9,2.2
		c-1.7-0.2-3.4-0.7-3.9-2.2C584.7-93.3,587.4-95.5,589.2-96.8z M584.6-86.2c1.6,0.2,3.2,0,4.7-0.3c1.5,0.4,3.1,0.5,4.7,0.3
		c2.4-0.3,5.8-1.5,9-2.1c-1.9,2.3-3.1,5.3-2.9,8.9c-1.8-0.3-3.7,0.1-4.9,1.8c-1.3,2-1.5,4.1-1.2,6.5c0.2,1.7,0.8,4.4-0.4,5.7
		c-1.1,1.2-2.6,1.4-4.2,1.3v0c0,0,0,0,0,0c0,0,0,0,0,0v0c-1.5,0.1-3.1-0.1-4.2-1.3c-1.3-1.4-0.6-4.1-0.4-5.7
		c0.3-2.4,0.1-4.5-1.2-6.5c-1.2-1.7-3-2.1-4.9-1.8c0.1-3.6-1-6.5-2.9-8.9C578.8-87.7,582.1-86.5,584.6-86.2z M564.3-84.1
		c1.7,1.8,2.7,4.3,3.2,6.6c1.1,5.4-5.6,7.2-6.4,1.6C560.7-78.7,562.3-81.7,564.3-84.1z M567.4-28.8c-0.5,2.3-1.5,4.8-3.2,6.6
		c-2-2.4-3.6-5.4-3.2-8.2C561.9-36,568.5-34.2,567.4-28.8z M589.2-9.5c-1.8-1.3-4.5-3.5-3.9-5.6c0.5-1.5,2.2-2,3.9-2.2
		c1.7,0.2,3.4,0.7,3.9,2.2C593.8-13.1,591.1-10.9,589.2-9.5z M593.9-20.1c-1.6-0.2-3.1,0-4.7,0.3c-1.5-0.4-3.1-0.5-4.7-0.3
		c-2.4,0.3-5.8,1.5-9,2.1c1.9-2.3,3.1-5.3,2.9-8.9c1.8,0.3,3.7-0.1,4.9-1.8c1.3-2,1.5-4.1,1.2-6.5c-0.2-1.7-0.8-4.4,0.4-5.7
		c1.1-1.2,2.6-1.4,4.2-1.3v0c0,0,0,0,0,0c0,0,0,0,0,0v0c1.5-0.1,3.1,0.1,4.2,1.3c1.3,1.4,0.6,4.1,0.4,5.7c-0.3,2.4-0.1,4.5,1.2,6.5
		c1.2,1.7,3,2.1,4.9,1.8c-0.1,3.6,1,6.5,2.9,8.9C599.7-18.7,596.3-19.8,593.9-20.1z M614.2-22.2c-1.7-1.8-2.7-4.3-3.2-6.6
		c-1.1-5.4,5.6-7.2,6.4-1.6C617.8-27.7,616.2-24.7,614.2-22.2z M660.1-51.1c-1.9,0.7-3.7,1.5-5.4,2.6c-7.5,4.8-13.2,11.1-18.9,18
		c-4.3,5.2-9.2,10.8-16.7,10.7c2-2,3.4-4.6,4.1-7.3c0.4-1.4,1.6-6.8,0-8c0.7,0.5,1.4,0.6,2.3,0.8c3.6,0.6,7-1.6,8.5-4.9
		c1.3-2.9,1.1-6.7-2.3-7.9c1.3,0.5,2.1,2.8,1.7,4c-0.5,1.6-2.7,2.4-4.2,2.5c-1.4,0.1-2.8-0.1-4-0.8c-2.7-1.5-4.7-2.5-7.8-2.5
		c-2.7,0-5.6,0.7-8,1.9c-4,2.1-6.8,5.4-8.4,9.7c-1.1-0.7-1.5-1.6-0.9-2.8c0.2-1,0.9-2,1.3-3c0.9-1.8,1.4-3.4,0.9-5.4
		c-0.7-2.7-4.4-3.4-6.7-3.5c-0.8,0-1.6,0-2.4,0c1-2.4-1.7-4.8-4.1-5.3v0c0,0,0,0,0,0c0,0,0,0,0,0v0c-2.3,0.4-5.1,2.9-4.1,5.3
		c-0.8-0.1-1.6-0.1-2.4,0c-2.3,0.1-6,0.7-6.7,3.5c-0.5,1.9,0,3.6,0.9,5.4c0.5,0.9,1.1,1.9,1.3,3c0.5,1.2,0.2,2.1-0.9,2.8
		c-1.5-4.2-4.4-7.6-8.4-9.7c-2.4-1.2-5.3-1.9-8-1.9c-3.1,0-5.1,1-7.8,2.5c-1.3,0.7-2.6,0.9-4,0.8c-1.5-0.1-3.7-0.9-4.2-2.5
		c-0.4-1.2,0.5-3.5,1.7-4c-3.4,1.3-3.6,5-2.3,7.9c1.4,3.3,4.9,5.5,8.5,4.9c0.8-0.1,1.6-0.2,2.3-0.8c-1.5,1.1-0.3,6.6,0,8
		c0.7,2.7,2.1,5.3,4.1,7.3c-7.5,0.2-12.4-5.4-16.7-10.7c-5.7-6.8-11.3-13.1-18.8-18c-1.7-1.1-3.5-1.9-5.4-2.6
		c-2.7-1-5.4-1.8-8.3-2.1c2.8-0.3,5.5-1,8.3-2.1c1.9-0.7,3.7-1.5,5.4-2.6c7.5-4.8,13.2-11.1,18.8-18c4.3-5.2,9.2-10.8,16.7-10.7
		c-2,2-3.4,4.6-4.1,7.3c-0.4,1.4-1.6,6.8,0,8c-0.7-0.5-1.4-0.6-2.3-0.8c-3.6-0.6-7,1.6-8.5,4.9c-1.3,2.9-1.1,6.7,2.3,7.9
		c-1.3-0.5-2.1-2.8-1.7-4c0.5-1.6,2.7-2.4,4.2-2.5c1.4-0.1,2.8,0.1,4,0.8c2.7,1.5,4.7,2.5,7.8,2.5c2.7,0,5.6-0.7,8-1.9
		c4-2.1,6.8-5.4,8.4-9.7c1.2,0.7,1.5,1.6,0.9,2.8c-0.2,1-0.9,2-1.3,3c-0.9,1.8-1.4,3.4-0.9,5.4c0.7,2.7,4.4,3.4,6.7,3.5
		c0.8,0,1.6,0,2.4,0c-1,2.4,1.7,4.8,4.1,5.3v0c0,0,0,0,0,0c0,0,0,0,0,0v0c2.3-0.4,5.1-2.9,4.1-5.3c0.8,0.1,1.6,0.1,2.4,0
		c2.3-0.1,6-0.7,6.7-3.5c0.5-1.9,0-3.6-0.9-5.4c-0.5-0.9-1.1-1.9-1.3-3c-0.5-1.2-0.2-2.1,0.9-2.8c1.5,4.2,4.4,7.6,8.4,9.7
		c2.4,1.2,5.3,1.9,8,1.9c3.1,0,5.1-1,7.8-2.5c1.3-0.7,2.6-0.9,4-0.8c1.5,0.1,3.7,0.9,4.2,2.5c0.4,1.2-0.5,3.5-1.7,4
		c3.4-1.3,3.6-5,2.3-7.9c-1.4-3.3-4.9-5.5-8.5-4.9c-0.8,0.1-1.6,0.2-2.3,0.8c1.5-1.1,0.3-6.6,0-8c-0.7-2.7-2.1-5.3-4.1-7.3
		c7.5-0.2,12.4,5.4,16.7,10.7c5.6,6.8,11.3,13.1,18.9,18c1.7,1.1,3.5,1.9,5.4,2.6c2.7,1,5.4,1.8,8.3,2.1
		C665.6-52.9,662.9-52.1,660.1-51.1z"/>
</g>
</svg>
