<?xml version="1.0" encoding="utf-8"?>
<!-- Generator: Adobe Illustrator 19.0.0, SVG Export Plug-In . SVG Version: 6.00 Build 0)  -->
<svg version="1.1" id="Layer_1" xmlns="http://www.w3.org/2000/svg" xmlns:xlink="http://www.w3.org/1999/xlink" x="0px" y="0px"
	 viewBox="0 0 200 200" style="enable-background:new 0 0 200 200;" xml:space="preserve">
<style type="text/css">
	.st0{fill:#FFFFFF;}
	.st1{fill:#4e4e4e;}
</style>
<path class="st1" d="M3,140.1c0.1-0.6,0.2-1.5,0.3-1.8c6.3-20.6,16-28.3,37.8-30.3c2.6-0.2,5.3-0.7,7.9-0.4c4,0.5,6.5-1.2,8.8-4.1
	c15.7-19.6,28.7-40.7,35.5-65.1c1.2-4.2,0.8-9,0.7-13.5c-0.1-3.7-1-7.5-0.9-11.2c0-1.6,1.4-3.8,2.7-4.5c1.1-0.6,3.2,0.6,4.8,1
	c1.6,0.4,3.3,1.4,4.9,1.3c21.1-1.3,40,4.4,56.3,18c4.8,4,9.1,8.5,13.5,13c6.6,6.8,12.9,14,23.7,13.8c-3.7,8-28.5,13.8-47.4,11.6
	c-17.5-2.1-31.3-10.8-42.3-24.4c-0.3,0.2-0.6,0.5-0.9,0.7c1.4,3.4,2.4,7,4.2,10.2c6.9,12,13.9,24.1,21.3,35.8
	c3.3,5.2,7.6,9.9,11.7,14.5c1.1,1.3,3.2,2,4.9,2.4c7.6,2.1,15.7,3.1,22.8,6.2c13.7,5.8,20.6,16.8,19.5,31.9
	c-1.5,20.7-11.7,36.1-30.4,45.2c-15.9,7.7-34.3,3.3-46.8-10.3c-10.9-11.8-15.8-25.8-14.4-41.8c1.3-14.2,9.8-22.9,22.9-27.4
	c3-1,6.1-1.7,9.3-2.6c-6.1-9.8-12.4-19.2-18-29.1c-5.6-9.7-10.4-19.9-15.1-29c-10.3,19.3-20.9,39.4-31.7,59.7c1,0.3,2,0.7,3,1
	c14.5,4.8,22.9,15.3,23.2,30.7c0.3,18.1-6.5,33.2-21.1,44.2c-16.5,12.4-37.5,10.7-53.1-3.7c-9.3-8.6-15.2-19.1-17.2-31.7
	C3.3,149,3.3,148,3,146.2C2.7,143.4,2.7,144.2,3,140.1z M13.3,142.5c0.6,0.6,1.7,2.8,3.1,3.1c2.7,0.4,3-2.1,3.1-4.3
	c0.3-5.2,2.1-9.6,6.2-13.2c1-0.9,1.7-3.4,1.1-4.4c-1.2-2.2-3.2-1.4-5,0C16.3,128,14.1,134.1,13.3,142.5z M109.3,142.4
	c0.5,0.6,1.5,2.8,3,3c2.8,0.5,3.2-1.9,3.3-4.1c0.2-5.3,2.1-9.6,6-13.3c1-0.9,0.8-3.2,1.2-4.8c-1.7,0.2-3.9-0.3-5.1,0.6
	C112.1,128.1,109.8,134.1,109.3,142.4z"/>
<path class="st0" d="M13.2,142.5c0.8-8.3,3-14.5,8.7-18.9c1.7-1.3,3.8-2.2,5,0c0.6,1-0.1,3.6-1.1,4.4c-4.1,3.5-5.9,8-6.2,13.2
	c-0.1,2.2-0.4,4.7-3.1,4.3C14.9,145.3,13.8,143.1,13.2,142.5z"/>
<path class="st0" d="M109.1,142.4c0.5-8.3,2.8-14.3,8.4-18.6c1.2-0.9,3.4-0.5,5.1-0.6c-0.4,1.7-0.2,3.9-1.2,4.8
	c-3.9,3.6-5.9,8-6,13.3c-0.1,2.3-0.5,4.7-3.3,4.1C110.7,145.2,109.7,143,109.1,142.4z"/>
</svg>
